<svg width="542" height="176" viewBox="0 0 542 176" fill="none" xmlns="http://www.w3.org/2000/svg">
<path d="M218.599 0.285931C213.066 0.902142 197.518 3.85995 190.165 5.70859C178.749 8.60478 169.785 11.6242 158.72 16.2458C149.055 20.3128 127.905 31.0349 127.905 31.8976C127.905 32.144 129.866 32.6986 132.317 33.0684C140.091 34.424 284.71 66.7135 288.912 68.0691C290.453 68.6237 290.243 68.8086 286.041 71.2118C280.508 74.3545 272.664 81.4409 269.023 86.3706C266.501 89.8214 263.07 96.0451 263.07 97.1543C263.07 97.4624 266.081 99.6808 269.723 102.084L276.306 106.459L274.975 109.848C272.874 115.271 272.104 120.201 272.104 127.78C272.174 135.667 273.365 141.398 276.446 147.992C282.609 161.117 292.484 170.299 304.6 174.119C308.942 175.536 310.693 175.721 317.346 175.721C328.481 175.598 341.577 173.934 346.34 171.962C350.051 170.422 355.934 165.862 358.736 162.411L360.066 160.747L384.928 163.212L409.79 165.677L422.746 164.136C429.89 163.274 440.885 161.856 447.188 161.055L458.673 159.515L461.895 160.932C469.879 164.506 475.621 164.999 490.469 163.459C500.343 162.473 504.405 161.117 510.848 156.865L515.26 153.907L526.956 152.367C533.399 151.504 539.212 150.641 539.912 150.457C540.963 150.148 541.103 149.286 541.103 143.863V137.578L538.932 136.469C536.971 135.544 536.831 135.175 537.181 133.387C538.441 127.287 539.702 118.66 539.702 115.641C539.702 99.4959 520.723 76.0183 496.281 62.1535C479.053 52.3558 456.082 47.2412 438.294 49.1515C434.372 49.5828 431.15 50.0758 431.15 50.3223C431.15 50.5687 432.621 51.1233 434.512 51.4931C443.686 53.6498 453.841 59.5654 460.634 66.6519C466.937 73.1837 467.007 73.4918 462.175 71.5815C459.934 70.7188 449.009 66.6519 437.803 62.5849C415.813 54.5125 409.51 51.9244 400.335 47.118C394.523 44.0369 365.249 27.8922 350.612 19.5733C346.55 17.2934 338.076 12.6718 331.633 9.28261C319.867 3.05888 315.945 1.6416 307.191 0.532416C302.989 -0.0221743 223.221 -0.207038 218.599 0.285931ZM321.898 12.4253C326.1 14.3972 352.292 28.7549 380.726 44.7764C389.69 49.8293 390.04 50.0758 388.08 50.4455C386.889 50.692 359.996 50.8152 328.201 50.8152L270.423 50.7536L268.392 48.905C264.33 45.1461 244.581 24.7495 241.64 21.1755C239.959 19.2036 238.558 17.0469 238.558 16.369C238.558 14.5204 240.589 11.5626 242.27 10.9464C243.11 10.6383 260.058 10.4534 280.928 10.515L318.046 10.6383L321.898 12.4253ZM507.837 77.0042C516.101 84.2755 522.194 91.3003 522.194 93.5186C522.194 94.2581 520.793 95.0592 517.501 96.1067C513.019 97.5856 512.669 97.6473 510.918 96.6613C507.207 94.6895 481.504 74.9091 481.784 74.2312C481.994 73.615 496.071 69.6097 498.312 69.548C498.802 69.4864 503.145 72.8756 507.837 77.0042ZM374.913 76.388C378.415 77.7436 407.409 94.2581 416.793 100.235L420.225 102.454L417.494 102.885C412.591 103.625 402.016 103.44 396.834 102.454C394.032 101.961 389.41 100.667 386.399 99.6191C373.653 95.1824 343.118 79.6539 345.079 78.7296C345.639 78.4831 350.612 77.8053 356.214 77.1891C361.817 76.6345 366.859 76.0799 367.42 75.9566C369.941 75.5253 373.092 75.7102 374.913 76.388ZM318.957 98.51C320.567 99.1262 323.789 101.16 326.03 103.07C333.033 108.924 336.605 117.181 336.605 127.595C336.605 148.423 321.828 162.781 305.44 157.789C298.087 155.509 289.963 146.205 287.511 137.27C286.391 133.079 286.391 122.789 287.582 117.859C289.542 109.54 294.795 102.7 301.658 99.3727C307.821 96.4148 312.794 96.1684 318.957 98.51ZM530.318 121.371C530.107 122.172 529.617 125.685 529.197 129.259C527.866 140.536 528.567 139.426 521.984 140.289C512.879 141.398 513.79 142.384 513.79 131.416V121.926L516.101 121.556C522.054 120.694 526.256 120.139 528.357 120.077C530.388 120.016 530.598 120.201 530.318 121.371ZM452.16 127.164C452.16 127.41 450.269 132.217 447.888 137.947C444.386 146.328 443.336 148.3 442.075 148.608C440.675 148.916 423.376 151.134 418.754 151.627C416.583 151.812 416.443 151.751 416.443 149.964C416.443 147.129 418.334 140.659 419.945 137.886C422.116 134.065 425.267 131.354 428.979 129.937C433.601 128.211 452.16 125.993 452.16 127.164Z" fill="black"/>
<path d="M3.10571 6.3248C0.44444 7.61884 -0.606063 10.8231 0.724573 13.5961C1.28484 14.8285 2.33534 16.0609 3.10571 16.4307C4.08618 16.862 22.7151 17.1085 62.4941 17.1085H120.412L128.045 13.0415C132.247 10.7615 137.78 8.17343 140.371 7.18749L145.064 5.4621H75.0301C15.2215 5.4621 4.71648 5.58535 3.10571 6.3248Z" fill="black"/>
<path d="M39.4529 31.2813L37.0017 33.1299L22.0846 33.1916C4.64623 33.1916 2.82536 33.5613 0.864419 37.0121C-0.816385 40.0931 -0.0460163 42.7428 3.17552 44.6531C5.55666 46.0704 5.6267 46.0704 32.5196 46.0704C58.572 46.0704 59.6225 46.132 62.5639 47.3644C70.8279 50.8768 71.3881 60.6129 63.4744 64.0637C61.2333 65.0497 58.2919 65.1729 32.8697 65.1729H4.78629L2.68529 66.7134C0.0240172 68.6853 -0.676318 71.1502 0.724352 73.9847C2.61526 78.0517 1.98496 77.9901 33.7101 78.2366L62.4239 78.4214L66.4158 80.0852C71.108 81.9955 76.8508 86.4938 79.3019 90.1294C82.5935 95.0591 83.9241 99.6191 84.2743 107.075C84.8346 118.414 81.613 127.102 74.9599 132.278C68.6568 137.146 62.0037 137.208 55.0703 132.34C52.4791 130.553 52.199 130.491 44.9155 130.491C36.3014 130.491 36.5115 130.06 40.8535 137.393C44.005 142.754 50.6582 148.361 56.7511 150.888C64.4548 154.092 68.2366 154.339 84.2043 152.736C102.693 150.949 106.125 149.594 113.058 141.337L115.579 138.379L119.431 138.687C121.602 138.872 145.904 141.521 173.427 144.541C200.95 147.622 227.773 150.518 232.955 151.134C238.138 151.689 246.262 152.552 251.024 153.106C255.716 153.661 259.778 153.907 260.058 153.722C260.479 153.353 256.487 140.412 255.296 138.44C254.876 137.763 252.145 137.27 244.021 136.469C233.446 135.421 222.03 134.189 176.929 129.259C164.393 127.903 148.635 126.239 141.912 125.562C119.711 123.343 114.529 122.665 113.969 122.111C113.338 121.556 110.607 112.683 105.214 93.8267C103.463 87.7262 101.713 81.8722 101.362 80.763C100.732 78.8528 100.872 78.7295 106.265 75.0939C109.276 72.9988 112.218 71.1502 112.778 70.9653C113.969 70.5956 115.159 73.7382 121.672 95.0591C124.053 102.823 126.154 109.663 126.294 110.218C126.575 111.019 127.975 111.327 133.018 111.635C139.951 112.067 148.285 112.929 205.993 118.968C234.006 121.926 243.18 122.665 243.32 122.111C243.53 121.433 230.084 83.6592 228.613 80.8863C227.913 79.469 224.201 78.0517 199.339 69.7945C156.759 55.6216 130.216 47.1179 98.6312 37.4434C93.9389 35.9645 90.1571 34.7321 90.2972 34.6088C90.3672 34.4856 95.0595 33.9926 100.592 33.438C110.677 32.3905 124.263 30.357 124.964 29.7408C125.174 29.5559 106.545 29.4327 83.574 29.4327H41.834L39.4529 31.2813Z" fill="black"/>
<path d="M394.593 30.1105C392.982 30.9116 391.791 35.1018 392.352 37.7515C393.192 41.7569 395.013 42.3731 405.518 42.3731C411.611 42.3115 415.042 42.065 415.813 41.572C417.634 40.3396 418.544 38.3061 418.544 35.2867C418.544 33.1299 418.124 32.144 416.793 30.9732C415.183 29.4943 414.762 29.4327 405.448 29.4327C400.125 29.4327 395.223 29.7408 394.593 30.1105Z" fill="black"/>
<path d="M2.68533 100.605C-0.0459742 102.639 -0.676276 105.165 0.794427 107.938C3.10553 112.19 2.33516 112.067 32.7297 111.882L60.1128 111.697L61.7936 109.972C63.8246 107.938 64.0347 104.364 62.3539 102.207C59.9727 99.1878 58.432 99.0646 30.6287 99.0646H4.78634L2.68533 100.605Z" fill="black"/>
</svg>
